# xmcd
#
# Track frame offsets:
#	150
#	20145
#	31452
#	44845
#	61972
#	77092
#	94252
#	107315
#	118885
#	133310
#	144420
#	165412
#	186150
#
# Disc length: 2723 seconds
#
# Revision: 0
# Processed by: cddbd v1.5.1PL0 Copyright (c) Steve Scherf et al.
# Submitted via: dBpowerAMP V4.0
#
DISCID=b80aa10d
DTITLE=Alkistis Protopsalti - Se erga tou Hlia Andriopoulou - CD2
DYEAR=1996
DGENRE=Acoustic
TTITLE0=Organiko
TTITLE1=Pagwne stous dromous o ageras
TTITLE2=Ta rembetika mas
TTITLE3=Metaksourgeio
TTITLE4=Plateia Vathis
TTITLE5=Tha se ksanavrw stous mpaksedes
TTITLE6=Autes oi ksenes agkalies
TTITLE7=Ti tragoudi na sou grapsw
TTITLE8=Xtypw tin porta tou theou
TTITLE9=Ta deilina sti Sparti
TTITLE10=T'aidonia stin Ithaki
TTITLE11=Min klais
TTITLE12=Tha se ksanavrw stous mpaksedes
EXTD=
EXTT0=
EXTT1=
EXTT2=
EXTT3=
EXTT4=
EXTT5=
EXTT6=
EXTT7=
EXTT8=
EXTT9=
EXTT10=
EXTT11=
EXTT12=
PLAYORDER=
